<svg width="20" height="21" viewBox="0 0 20 21" fill="none" xmlns="http://www.w3.org/2000/svg">
<g id="alert-triangle">
<path id="Icon" d="M9.99963 8.00019V11.3335M9.99963 14.6669H10.008M8.84573 3.74329L1.99166 15.5821C1.61149 16.2388 1.4214 16.5671 1.4495 16.8366C1.474 17.0716 1.59714 17.2852 1.78828 17.4242C2.00741 17.5835 2.38679 17.5835 3.14556 17.5835H16.8537C17.6125 17.5835 17.9919 17.5835 18.211 17.4242C18.4021 17.2852 18.5253 17.0716 18.5498 16.8366C18.5779 16.5671 18.3878 16.2388 18.0076 15.5821L11.1535 3.74329C10.7747 3.08899 10.5853 2.76184 10.3382 2.65196C10.1227 2.55612 9.8766 2.55612 9.66105 2.65196C9.41394 2.76184 9.22454 3.08899 8.84573 3.74329Z" stroke="currentColor" stroke-width="1.66667" stroke-linecap="round" stroke-linejoin="round"/>
</g>
</svg>
