<svg width="20" height="20" viewBox="0 0 20 20" fill="none" xmlns="http://www.w3.org/2000/svg">
<g id="check-circle-broken" clip-path="url(#clip0_3808_9420)">
<path id="Icon" d="M18.3337 9.23794V10.0046C18.3326 11.8016 17.7507 13.5502 16.6748 14.9895C15.5988 16.4288 14.0864 17.4817 12.3631 17.9912C10.6399 18.5007 8.79804 18.4395 7.11238 17.8168C5.42673 17.194 3.98754 16.043 3.00946 14.5355C2.03138 13.028 1.56682 11.2447 1.68506 9.45154C1.80329 7.65841 2.498 5.95155 3.66556 4.5855C4.83312 3.21946 6.41098 2.26743 8.16382 1.8714C9.91665 1.47537 11.7505 1.65655 13.392 2.38794M18.3337 3.33317L10.0003 11.6748L7.50033 9.17484" stroke="currentColor" stroke-width="1.66667" stroke-linecap="round" stroke-linejoin="round"/>
</g>
<defs>
<clipPath id="clip0_3808_9420">
<rect width="20" height="20" fill="white"/>
</clipPath>
</defs>
</svg>
