<svg width="14" height="14" viewBox="0 0 14 14" fill="none" xmlns="http://www.w3.org/2000/svg">
<g id="command">
<path id="Icon" d="M5.25 5.25V3.5C5.25 2.5335 4.4665 1.75 3.5 1.75C2.5335 1.75 1.75 2.5335 1.75 3.5C1.75 4.4665 2.5335 5.25 3.5 5.25H5.25ZM5.25 5.25V8.75M5.25 5.25H8.75M5.25 8.75V10.5C5.25 11.4665 4.4665 12.25 3.5 12.25C2.5335 12.25 1.75 11.4665 1.75 10.5C1.75 9.5335 2.5335 8.75 3.5 8.75H5.25ZM5.25 8.75H8.75M8.75 8.75H10.5C11.4665 8.75 12.25 9.5335 12.25 10.5C12.25 11.4665 11.4665 12.25 10.5 12.25C9.5335 12.25 8.75 11.4665 8.75 10.5V8.75ZM8.75 8.75V5.25M8.75 5.25V3.5C8.75 2.5335 9.5335 1.75 10.5 1.75C11.4665 1.75 12.25 2.5335 12.25 3.5C12.25 4.4665 11.4665 5.25 10.5 5.25H8.75Z" stroke="currentColor" stroke-linecap="round" stroke-linejoin="round"/>
</g>
</svg>
