<svg width="20" height="21" viewBox="0 0 20 21" fill="none" xmlns="http://www.w3.org/2000/svg">
<g id="copy-07">
<path id="Icon" d="M8.74996 2.16908C8.18742 2.1767 7.84971 2.20927 7.57664 2.3484C7.26304 2.50819 7.00807 2.76316 6.84828 3.07676C6.70915 3.34983 6.67658 3.68754 6.66896 4.25008M16.25 2.16908C16.8125 2.1767 17.1502 2.20927 17.4233 2.3484C17.7369 2.50819 17.9918 2.76316 18.1516 3.07676C18.2908 3.34983 18.3233 3.68754 18.331 4.25007M18.331 11.7501C18.3233 12.3126 18.2908 12.6503 18.1516 12.9234C17.9918 13.237 17.7369 13.492 17.4233 13.6518C17.1502 13.7909 16.8125 13.8235 16.25 13.8311M18.3333 7.16674V8.83341M11.6667 2.16675H13.3333M4.33329 18.8334H10.6666C11.6 18.8334 12.0668 18.8334 12.4233 18.6518C12.7369 18.492 12.9918 18.237 13.1516 17.9234C13.3333 17.5669 13.3333 17.1002 13.3333 16.1667V9.83341C13.3333 8.89999 13.3333 8.43328 13.1516 8.07676C12.9918 7.76316 12.7369 7.50819 12.4233 7.3484C12.0668 7.16675 11.6 7.16675 10.6666 7.16675H4.33329C3.39987 7.16675 2.93316 7.16675 2.57664 7.3484C2.26304 7.50819 2.00807 7.76316 1.84828 8.07676C1.66663 8.43328 1.66663 8.89999 1.66663 9.83341V16.1667C1.66663 17.1002 1.66663 17.5669 1.84828 17.9234C2.00807 18.237 2.26304 18.492 2.57664 18.6518C2.93316 18.8334 3.39987 18.8334 4.33329 18.8334Z" stroke="currentColor" stroke-width="1.66667" stroke-linecap="round" stroke-linejoin="round"/>
</g>
</svg>
