<svg width="21" height="20" viewBox="0 0 21 20" fill="none" xmlns="http://www.w3.org/2000/svg">
<g id="dots-horizontal">
<g id="Icon">
<path d="M10.3333 10.8333C10.7935 10.8333 11.1666 10.4602 11.1666 9.99999C11.1666 9.53975 10.7935 9.16666 10.3333 9.16666C9.87306 9.16666 9.49996 9.53975 9.49996 9.99999C9.49996 10.4602 9.87306 10.8333 10.3333 10.8333Z" stroke="currentColor" stroke-width="2" stroke-linecap="round" stroke-linejoin="round"/>
<path d="M16.1666 10.8333C16.6269 10.8333 17 10.4602 17 9.99999C17 9.53975 16.6269 9.16666 16.1666 9.16666C15.7064 9.16666 15.3333 9.53975 15.3333 9.99999C15.3333 10.4602 15.7064 10.8333 16.1666 10.8333Z" stroke="currentColor" stroke-width="2" stroke-linecap="round" stroke-linejoin="round"/>
<path d="M4.49996 10.8333C4.9602 10.8333 5.33329 10.4602 5.33329 9.99999C5.33329 9.53975 4.9602 9.16666 4.49996 9.16666C4.03972 9.16666 3.66663 9.53975 3.66663 9.99999C3.66663 10.4602 4.03972 10.8333 4.49996 10.8333Z" stroke="currentColor" stroke-width="2" stroke-linecap="round" stroke-linejoin="round"/>
</g>
</g>
</svg>
