<svg width="20" height="21" viewBox="0 0 20 21" fill="none" xmlns="http://www.w3.org/2000/svg">
<g id="file-plus-03">
<path id="Icon" d="M11.6666 2.3913V5.83341C11.6666 6.30012 11.6666 6.53348 11.7575 6.71174C11.8374 6.86854 11.9649 6.99602 12.1217 7.07592C12.2999 7.16675 12.5333 7.16675 13 7.16675H16.4421M9.99998 15.5V10.5M7.49998 13H12.5M11.6666 2.16669H7.33331C5.93318 2.16669 5.23312 2.16669 4.69834 2.43917C4.22793 2.67885 3.84548 3.06131 3.6058 3.53171C3.33331 4.06649 3.33331 4.76656 3.33331 6.16669V14.8334C3.33331 16.2335 3.33331 16.9336 3.6058 17.4683C3.84548 17.9387 4.22793 18.3212 4.69834 18.5609C5.23312 18.8334 5.93318 18.8334 7.33331 18.8334H12.6666C14.0668 18.8334 14.7668 18.8334 15.3016 18.5609C15.772 18.3212 16.1545 17.9387 16.3942 17.4683C16.6666 16.9336 16.6666 16.2335 16.6666 14.8334V7.16669L11.6666 2.16669Z" stroke="currentColor" stroke-width="1.66667" stroke-linecap="round" stroke-linejoin="round"/>
</g>
</svg>
