<svg width="20" height="21" viewBox="0 0 20 21" fill="none" xmlns="http://www.w3.org/2000/svg">
<g id="file-code-01">
<path id="Icon" d="M11.6667 2.39136V5.83348C11.6667 6.30018 11.6667 6.53354 11.7575 6.7118C11.8374 6.8686 11.9649 6.99609 12.1217 7.07598C12.3 7.16681 12.5333 7.16681 13 7.16681H16.4422M11.6667 15.0834L13.75 13.0001L11.6667 10.9167M8.33337 10.9167L6.25004 13.0001L8.33337 15.0834M16.6667 8.8236V14.8334C16.6667 16.2335 16.6667 16.9336 16.3942 17.4684C16.1545 17.9388 15.7721 18.3212 15.3017 18.5609C14.7669 18.8334 14.0668 18.8334 12.6667 18.8334H7.33337C5.93324 18.8334 5.23318 18.8334 4.6984 18.5609C4.22799 18.3212 3.84554 17.9388 3.60586 17.4684C3.33337 16.9336 3.33337 16.2335 3.33337 14.8334V6.16675C3.33337 4.76662 3.33337 4.06655 3.60586 3.53177C3.84554 3.06137 4.22799 2.67892 4.6984 2.43923C5.23318 2.16675 5.93324 2.16675 7.33337 2.16675H10.0099C10.6213 2.16675 10.9271 2.16675 11.2148 2.23582C11.4699 2.29707 11.7137 2.39808 11.9374 2.53515C12.1897 2.68975 12.4059 2.90594 12.8383 3.33832L15.4951 5.99517C15.9275 6.42755 16.1437 6.64374 16.2983 6.89604C16.4354 7.11972 16.5364 7.36358 16.5976 7.61867C16.6667 7.90639 16.6667 8.21213 16.6667 8.8236Z" stroke="currentColor" stroke-width="1.5" stroke-linecap="round" stroke-linejoin="round"/>
</g>
</svg>
