<svg width="20" height="21" viewBox="0 0 20 21" fill="none" xmlns="http://www.w3.org/2000/svg">
<g id="folder-plus">
<path id="Icon" d="M10.8334 6.33333L9.90374 4.4741C9.63619 3.939 9.50241 3.67144 9.30283 3.47597C9.12634 3.30311 8.91362 3.17164 8.68008 3.09109C8.41599 3 8.11686 3 7.5186 3H4.33335C3.39993 3 2.93322 3 2.5767 3.18166C2.2631 3.34144 2.00813 3.59641 1.84834 3.91002C1.66669 4.26654 1.66669 4.73325 1.66669 5.66667V6.33333M1.66669 6.33333H14.3334C15.7335 6.33333 16.4336 6.33333 16.9683 6.60582C17.4387 6.8455 17.8212 7.22795 18.0609 7.69836C18.3334 8.23314 18.3334 8.9332 18.3334 10.3333V14C18.3334 15.4001 18.3334 16.1002 18.0609 16.635C17.8212 17.1054 17.4387 17.4878 16.9683 17.7275C16.4336 18 15.7335 18 14.3334 18H5.66669C4.26656 18 3.56649 18 3.03171 17.7275C2.56131 17.4878 2.17885 17.1054 1.93917 16.635C1.66669 16.1002 1.66669 15.4001 1.66669 14V6.33333ZM10 14.6667V9.66667M7.50002 12.1667H12.5" stroke="currentColor" stroke-width="1.66667" stroke-linecap="round" stroke-linejoin="round"/>
</g>
</svg>
