<svg width="20" height="21" viewBox="0 0 20 21" fill="none" xmlns="http://www.w3.org/2000/svg">
<g id="folder">
<path id="Icon" d="M10.8333 6.33333L9.90368 4.4741C9.63613 3.939 9.50235 3.67144 9.30277 3.47597C9.12628 3.30311 8.91356 3.17164 8.68002 3.09109C8.41593 3 8.1168 3 7.51854 3H4.33329C3.39987 3 2.93316 3 2.57664 3.18166C2.26304 3.34144 2.00807 3.59641 1.84828 3.91002C1.66663 4.26654 1.66663 4.73325 1.66663 5.66667V6.33333M1.66663 6.33333H14.3333C15.7334 6.33333 16.4335 6.33333 16.9683 6.60582C17.4387 6.8455 17.8211 7.22795 18.0608 7.69836C18.3333 8.23314 18.3333 8.9332 18.3333 10.3333V14C18.3333 15.4001 18.3333 16.1002 18.0608 16.635C17.8211 17.1054 17.4387 17.4878 16.9683 17.7275C16.4335 18 15.7334 18 14.3333 18H5.66663C4.26649 18 3.56643 18 3.03165 17.7275C2.56124 17.4878 2.17879 17.1054 1.93911 16.635C1.66663 16.1002 1.66663 15.4001 1.66663 14V6.33333Z" stroke="currentColor" stroke-width="1.5" stroke-linecap="round" stroke-linejoin="round"/>
</g>
</svg>
