<svg width="16" height="17" viewBox="0 0 16 17" fill="none" xmlns="http://www.w3.org/2000/svg">
<g id="help-circle">
<path id="Icon" d="M6.05967 6.49992C6.21641 6.05436 6.52578 5.67866 6.93298 5.43934C7.34018 5.20002 7.81894 5.11254 8.28446 5.19239C8.74998 5.27224 9.17222 5.51427 9.47639 5.8756C9.78057 6.23694 9.94705 6.69427 9.94634 7.16659C9.94634 8.49992 7.94634 9.16659 7.94634 9.16659M7.99967 11.8333H8.00634M14.6663 8.49992C14.6663 12.1818 11.6816 15.1666 7.99967 15.1666C4.31778 15.1666 1.33301 12.1818 1.33301 8.49992C1.33301 4.81802 4.31778 1.83325 7.99967 1.83325C11.6816 1.83325 14.6663 4.81802 14.6663 8.49992Z" stroke="currentColor" stroke-width="1.33333" stroke-linecap="round" stroke-linejoin="round"/>
</g>
</svg>
