<svg width="12" height="12" viewBox="0 0 12 12" fill="none" xmlns="http://www.w3.org/2000/svg">
<g id="hourglass-01">
<path id="Icon" d="M6 6L3.86356 4.21963C3.54613 3.95511 3.38742 3.82285 3.27332 3.66072C3.17222 3.51707 3.09714 3.35677 3.05151 3.18714C3 2.99569 3 2.7891 3 2.3759V1M6 6L8.13644 4.21963C8.45387 3.95511 8.61258 3.82285 8.72668 3.66072C8.82778 3.51707 8.90286 3.35677 8.94849 3.18714C9 2.99569 9 2.7891 9 2.3759V1M6 6L3.86356 7.78037C3.54613 8.04489 3.38742 8.17715 3.27332 8.33928C3.17222 8.48293 3.09714 8.64323 3.05151 8.81286C3 9.00431 3 9.2109 3 9.6241V11M6 6L8.13644 7.78037C8.45387 8.04489 8.61258 8.17715 8.72668 8.33928C8.82778 8.48293 8.90286 8.64323 8.94849 8.81286C9 9.00431 9 9.2109 9 9.6241V11M2 1H10M2 11H10" stroke="currentColor" stroke-linecap="round" stroke-linejoin="round"/>
</g>
</svg>
