<svg width="20" height="21" viewBox="0 0 20 21" fill="none" xmlns="http://www.w3.org/2000/svg">
<g id="image-01">
<path id="Icon" d="M13.5 18H5.77614C5.2713 18 5.01887 18 4.90199 17.9002C4.80056 17.8135 4.74674 17.6836 4.75721 17.5506C4.76927 17.3974 4.94776 17.2189 5.30474 16.8619L12.3905 9.77614C12.7205 9.44613 12.8855 9.28112 13.0758 9.2193C13.2432 9.16492 13.4235 9.16492 13.5908 9.2193C13.7811 9.28112 13.9461 9.44613 14.2761 9.77614L17.5 13V14M13.5 18C14.9001 18 15.6002 18 16.135 17.7275C16.6054 17.4878 16.9878 17.1054 17.2275 16.635C17.5 16.1002 17.5 15.4001 17.5 14M13.5 18H6.5C5.09987 18 4.3998 18 3.86502 17.7275C3.39462 17.4878 3.01217 17.1054 2.77248 16.635C2.5 16.1002 2.5 15.4001 2.5 14V7C2.5 5.59987 2.5 4.8998 2.77248 4.36502C3.01217 3.89462 3.39462 3.51217 3.86502 3.27248C4.3998 3 5.09987 3 6.5 3H13.5C14.9001 3 15.6002 3 16.135 3.27248C16.6054 3.51217 16.9878 3.89462 17.2275 4.36502C17.5 4.8998 17.5 5.59987 17.5 7V14M8.75 7.58333C8.75 8.50381 8.00381 9.25 7.08333 9.25C6.16286 9.25 5.41667 8.50381 5.41667 7.58333C5.41667 6.66286 6.16286 5.91667 7.08333 5.91667C8.00381 5.91667 8.75 6.66286 8.75 7.58333Z" stroke="currentColor" stroke-width="1.5" stroke-linecap="round" stroke-linejoin="round"/>
</g>
</svg>
