<svg width="32" height="32" viewBox="0 0 32 32" fill="none" xmlns="http://www.w3.org/2000/svg">
<path fill-rule="evenodd" clip-rule="evenodd" d="M7.90735 5.85225C7.90735 2.62014 10.5275 0 13.7596 0C16.9917 0 19.6119 2.62014 19.6119 5.85225V8.17091L26.1477 8.17091C29.3799 8.17091 32 10.7911 32 14.0232C32 17.2553 29.3799 19.8754 26.1477 19.8754H19.6119V26.1477C19.6119 29.3799 16.9917 32 13.7596 32C10.5275 32 7.90735 29.3799 7.90735 26.1477V19.8754H5.85225C2.62014 19.8754 1.08991e-07 17.2553 0 14.0232C-1.08991e-07 10.7911 2.62014 8.17091 5.85225 8.17091H7.90735V5.85225ZM7.90735 10.9138H5.85225C4.13498 10.9138 2.74286 12.3059 2.74286 14.0232C2.74286 15.7404 4.13498 17.1326 5.85225 17.1326H7.90735V10.9138ZM10.6502 17.1326V10.9138L16.869 10.9138V17.1326L10.6502 17.1326ZM10.6502 19.8754V26.1477C10.6502 27.865 12.0423 29.2571 13.7596 29.2571C15.4769 29.2571 16.869 27.865 16.869 26.1477V19.8754L10.6502 19.8754ZM19.6119 17.1326H26.1477C27.865 17.1326 29.2571 15.7404 29.2571 14.0232C29.2571 12.3059 27.865 10.9138 26.1477 10.9138H19.6119V17.1326ZM16.869 8.17091L10.6502 8.17091V5.85225C10.6502 4.13498 12.0423 2.74286 13.7596 2.74286C15.4769 2.74286 16.869 4.13498 16.869 5.85225V8.17091ZM26.1477 23.0384C24.4305 23.0384 23.0384 24.4305 23.0384 26.1477C23.0384 27.865 24.4305 29.2571 26.1477 29.2571C27.865 29.2571 29.2571 27.865 29.2571 26.1477C29.2571 24.4305 27.865 23.0384 26.1477 23.0384ZM20.2955 26.1477C20.2955 22.9156 22.9156 20.2955 26.1477 20.2955C29.3799 20.2955 32 22.9156 32 26.1477C32 29.3799 29.3799 32 26.1477 32C22.9156 32 20.2955 29.3799 20.2955 26.1477Z" fill="currentColor"/>
</svg>
