<svg width="20" height="21" viewBox="0 0 20 21" fill="none" xmlns="http://www.w3.org/2000/svg">
<g id="play-square">
<g id="Icon">
<path d="M7.91667 7.97111C7.91667 7.57337 7.91667 7.3745 7.99978 7.26348C8.07222 7.16673 8.18309 7.1062 8.30365 7.09759C8.44199 7.08771 8.60927 7.19524 8.94384 7.41032L12.8777 9.93921C13.168 10.1258 13.3131 10.2192 13.3633 10.3378C13.4071 10.4415 13.4071 10.5585 13.3633 10.6622C13.3131 10.7808 13.168 10.8742 12.8777 11.0608L8.94384 13.5897C8.60927 13.8048 8.44199 13.9123 8.30365 13.9024C8.18309 13.8938 8.07222 13.8333 7.99978 13.7365C7.91667 13.6255 7.91667 13.4266 7.91667 13.0289V7.97111Z" stroke="currentColor" stroke-width="1.5" stroke-linecap="round" stroke-linejoin="round"/>
<path d="M2.5 7C2.5 5.59987 2.5 4.8998 2.77248 4.36502C3.01217 3.89462 3.39462 3.51217 3.86502 3.27248C4.3998 3 5.09987 3 6.5 3H13.5C14.9001 3 15.6002 3 16.135 3.27248C16.6054 3.51217 16.9878 3.89462 17.2275 4.36502C17.5 4.8998 17.5 5.59987 17.5 7V14C17.5 15.4001 17.5 16.1002 17.2275 16.635C16.9878 17.1054 16.6054 17.4878 16.135 17.7275C15.6002 18 14.9001 18 13.5 18H6.5C5.09987 18 4.3998 18 3.86502 17.7275C3.39462 17.4878 3.01217 17.1054 2.77248 16.635C2.5 16.1002 2.5 15.4001 2.5 14V7Z" stroke="currentColor" stroke-width="1.5" stroke-linecap="round" stroke-linejoin="round"/>
</g>
</g>
</svg>
