<svg width="20" height="20" viewBox="0 0 20 20" fill="none" xmlns="http://www.w3.org/2000/svg">
<g id="rocket-02">
<path id="Icon" d="M9.99998 12.5L7.49998 10M9.99998 12.5C11.164 12.0573 12.2807 11.4989 13.3333 10.8333M9.99998 12.5V16.6667C9.99998 16.6667 12.525 16.2083 13.3333 15C14.2333 13.65 13.3333 10.8333 13.3333 10.8333M7.49998 10C7.94343 8.84954 8.50182 7.74673 9.16665 6.70835C10.1376 5.15584 11.4897 3.87755 13.0941 2.99509C14.6986 2.11262 16.5022 1.65532 18.3333 1.66668C18.3333 3.93335 17.6833 7.91668 13.3333 10.8333M7.49998 10H3.33331C3.33331 10 3.79165 7.47501 4.99998 6.66668C6.34998 5.76668 9.16665 6.66668 9.16665 6.66668M3.74998 13.75C2.49998 14.8 2.08331 17.9167 2.08331 17.9167C2.08331 17.9167 5.19998 17.5 6.24998 16.25C6.84165 15.55 6.83331 14.475 6.17498 13.825C5.85107 13.5159 5.42439 13.3372 4.97683 13.3234C4.52928 13.3095 4.09238 13.4615 3.74998 13.75Z" stroke="currentColor" stroke-width="1.66667" stroke-linecap="round" stroke-linejoin="round"/>
</g>
</svg>
