<svg width="16" height="16" viewBox="0 0 16 16" fill="none" xmlns="http://www.w3.org/2000/svg">
<g id="settings-01" clip-path="url(#clip0_3467_10792)">
<g id="Icon">
<path d="M7.99992 10C9.10449 10 9.99992 9.10458 9.99992 8.00001C9.99992 6.89544 9.10449 6.00001 7.99992 6.00001C6.89535 6.00001 5.99992 6.89544 5.99992 8.00001C5.99992 9.10458 6.89535 10 7.99992 10Z" stroke="currentColor" stroke-width="1.5" stroke-linecap="round" stroke-linejoin="round"/>
<path d="M12.4848 9.81819C12.4041 10.001 12.38 10.2038 12.4157 10.4004C12.4513 10.597 12.545 10.7784 12.6848 10.9212L12.7211 10.9576C12.8338 11.0702 12.9232 11.2038 12.9842 11.351C13.0452 11.4981 13.0766 11.6559 13.0766 11.8152C13.0766 11.9745 13.0452 12.1322 12.9842 12.2793C12.9232 12.4265 12.8338 12.5602 12.7211 12.6727C12.6086 12.7854 12.4749 12.8748 12.3277 12.9358C12.1806 12.9968 12.0228 13.0282 11.8636 13.0282C11.7043 13.0282 11.5465 12.9968 11.3994 12.9358C11.2522 12.8748 11.1186 12.7854 11.006 12.6727L10.9696 12.6364C10.8268 12.4967 10.6454 12.4029 10.4488 12.3673C10.2522 12.3316 10.0494 12.3557 9.86659 12.4364C9.68733 12.5132 9.53445 12.6408 9.42677 12.8034C9.31909 12.966 9.2613 13.1565 9.26052 13.3515V13.4546C9.26052 13.776 9.13282 14.0843 8.9055 14.3117C8.67819 14.539 8.36988 14.6667 8.0484 14.6667C7.72693 14.6667 7.41862 14.539 7.1913 14.3117C6.96399 14.0843 6.83628 13.776 6.83628 13.4546V13.4C6.83159 13.1994 6.76666 13.0049 6.64993 12.8416C6.53319 12.6784 6.37006 12.5541 6.18174 12.4849C5.99894 12.4042 5.79617 12.3801 5.59956 12.4158C5.40296 12.4514 5.22154 12.5451 5.07871 12.6849L5.04234 12.7212C4.92977 12.8339 4.79609 12.9233 4.64894 12.9843C4.50179 13.0453 4.34406 13.0767 4.18477 13.0767C4.02548 13.0767 3.86775 13.0453 3.7206 12.9843C3.57345 12.9233 3.43976 12.8339 3.32719 12.7212C3.21449 12.6087 3.12509 12.475 3.06409 12.3278C3.00309 12.1807 2.97169 12.0229 2.97169 11.8636C2.97169 11.7044 3.00309 11.5466 3.06409 11.3995C3.12509 11.2523 3.21449 11.1186 3.32719 11.0061L3.36356 10.9697C3.50327 10.8269 3.597 10.6455 3.63265 10.4489C3.6683 10.2522 3.64423 10.0495 3.56355 9.86668C3.48673 9.68742 3.35916 9.53455 3.19656 9.42686C3.03396 9.31918 2.84343 9.26139 2.6484 9.26062H2.54537C2.2239 9.26062 1.91559 9.13291 1.68827 8.90559C1.46096 8.67828 1.33325 8.36997 1.33325 8.0485C1.33325 7.72702 1.46096 7.41871 1.68827 7.1914C1.91559 6.96408 2.2239 6.83637 2.54537 6.83637H2.59992C2.80052 6.83168 2.99507 6.76675 3.15828 6.65002C3.32149 6.53328 3.44581 6.37015 3.51507 6.18183C3.59575 5.99903 3.61981 5.79626 3.58416 5.59965C3.54852 5.40305 3.45479 5.22163 3.31507 5.0788L3.27871 5.04243C3.16601 4.92986 3.0766 4.79618 3.0156 4.64903C2.9546 4.50188 2.92321 4.34415 2.92321 4.18486C2.92321 4.02557 2.9546 3.86784 3.0156 3.72069C3.0766 3.57354 3.16601 3.43986 3.27871 3.32728C3.39128 3.21458 3.52496 3.12518 3.67211 3.06418C3.81926 3.00318 3.97699 2.97178 4.13628 2.97178C4.29557 2.97178 4.4533 3.00318 4.60045 3.06418C4.7476 3.12518 4.88128 3.21458 4.99386 3.32728L5.03022 3.36365C5.17306 3.50337 5.35447 3.59709 5.55108 3.63274C5.74768 3.66839 5.95045 3.64432 6.13325 3.56365H6.18174C6.36099 3.48682 6.51387 3.35926 6.62155 3.19666C6.72923 3.03406 6.78702 2.84352 6.7878 2.6485V2.54546C6.7878 2.22399 6.9155 1.91568 7.14282 1.68837C7.37014 1.46105 7.67844 1.33334 7.99992 1.33334C8.32139 1.33334 8.6297 1.46105 8.85702 1.68837C9.08433 1.91568 9.21204 2.22399 9.21204 2.54546V2.60001C9.21282 2.79503 9.27061 2.98557 9.37829 3.14817C9.48597 3.31077 9.63885 3.43834 9.8181 3.51516C10.0009 3.59584 10.2037 3.6199 10.4003 3.58426C10.5969 3.54861 10.7783 3.45488 10.9211 3.31516L10.9575 3.2788C11.0701 3.1661 11.2038 3.07669 11.3509 3.0157C11.4981 2.9547 11.6558 2.9233 11.8151 2.9233C11.9744 2.9233 12.1321 2.9547 12.2792 3.0157C12.4264 3.07669 12.5601 3.1661 12.6726 3.2788C12.7853 3.39137 12.8748 3.52505 12.9357 3.6722C12.9967 3.81935 13.0281 3.97708 13.0281 4.13637C13.0281 4.29567 12.9967 4.45339 12.9357 4.60054C12.8748 4.74769 12.7853 4.88138 12.6726 4.99395L12.6363 5.03031C12.4966 5.17315 12.4028 5.35457 12.3672 5.55117C12.3315 5.74777 12.3556 5.95055 12.4363 6.13334V6.18183C12.5131 6.36108 12.6407 6.51396 12.8033 6.62164C12.9659 6.72932 13.1564 6.78711 13.3514 6.78789H13.4545C13.7759 6.78789 14.0842 6.91559 14.3116 7.14291C14.5389 7.37023 14.6666 7.67854 14.6666 8.00001C14.6666 8.32148 14.5389 8.62979 14.3116 8.85711C14.0842 9.08443 13.7759 9.21213 13.4545 9.21213H13.3999C13.2049 9.21291 13.0144 9.2707 12.8518 9.37838C12.6892 9.48606 12.5616 9.63894 12.4848 9.81819Z" stroke="currentColor" stroke-width="1.5" stroke-linecap="round" stroke-linejoin="round"/>
</g>
</g>
<defs>
<clipPath id="clip0_3467_10792">
<rect width="16" height="16" fill="white"/>
</clipPath>
</defs>
</svg>
