<svg width="20" height="20" viewBox="0 0 20 20" fill="none" xmlns="http://www.w3.org/2000/svg">
<g id="signal-01">
<path id="Icon" d="M13.5359 6.46444C15.4885 8.41707 15.4885 11.5829 13.5359 13.5355M6.46479 13.5355C4.51217 11.5829 4.51217 8.41704 6.46479 6.46442M4.10777 15.8925C0.8534 12.6382 0.8534 7.36179 4.10777 4.10742M15.8929 4.10746C19.1473 7.36183 19.1473 12.6382 15.8929 15.8926M11.667 9.99998C11.667 10.9205 10.9208 11.6666 10.0003 11.6666C9.07985 11.6666 8.33366 10.9205 8.33366 9.99998C8.33366 9.0795 9.07985 8.33331 10.0003 8.33331C10.9208 8.33331 11.667 9.0795 11.667 9.99998Z" stroke="currentColor" stroke-width="1.66667" stroke-linecap="round" stroke-linejoin="round"/>
</g>
</svg>
