<svg width="36" height="36" viewBox="0 0 36 36" fill="none" xmlns="http://www.w3.org/2000/svg">
<path d="M10.8889 2H7.68889C5.69759 2 4.70194 2 3.94137 2.38753C3.27235 2.72842 2.72842 3.27235 2.38753 3.94137C2 4.70194 2 5.69759 2 7.68889V10.8889M10.8889 34H7.68889C5.69759 34 4.70194 34 3.94137 33.6125C3.27235 33.2716 2.72842 32.7277 2.38753 32.0586C2 31.2981 2 30.3024 2 28.3111V25.1111M34 10.8889V7.68889C34 5.69759 34 4.70194 33.6125 3.94137C33.2716 3.27235 32.7277 2.72842 32.0586 2.38753C31.2981 2 30.3024 2 28.3111 2H25.1111M34 25.1111V28.3111C34 30.3024 34 31.2981 33.6125 32.0586C33.2716 32.7277 32.7277 33.2716 32.0586 33.6125C31.2981 34 30.3024 34 28.3111 34H25.1111M25.1111 18C25.1111 21.9274 21.9274 25.1111 18 25.1111C14.0726 25.1111 10.8889 21.9274 10.8889 18C10.8889 14.0726 14.0726 10.8889 18 10.8889C21.9274 10.8889 25.1111 14.0726 25.1111 18Z" stroke="currentColor" stroke-width="3" stroke-linecap="round" stroke-linejoin="round"/>
</svg>
